<?xml version="1.0" standalone="no"?>
<!DOCTYPE svg PUBLIC "-//W3C//DTD SVG 20010904//EN"
 "http://www.w3.org/TR/2001/REC-SVG-20010904/DTD/svg10.dtd">
<svg version="1.0" xmlns="http://www.w3.org/2000/svg"
 width="1080.000000pt" height="1080.000000pt" viewBox="0 0 1080.000000 1080.000000"
 preserveAspectRatio="xMidYMid meet">
<metadata>
Created by potrace 1.14, written by Peter Selinger 2001-2017
</metadata>
<g transform="translate(0.000000,1080.000000) scale(0.100000,-0.100000)"
fill="#000000" stroke="none">
<path d="M5138 9985 c-2 -2 -41 -6 -88 -10 -89 -6 -158 -13 -200 -20 -14 -2
-50 -6 -80 -10 -71 -9 -111 -15 -130 -20 -13 -4 -53 -10 -135 -21 -11 -1 -21
-3 -22 -4 -4 -3 -4 -3 -78 -20 -33 -7 -64 -15 -70 -16 -17 -4 -99 -24 -117
-29 -10 -3 -26 -7 -35 -10 -216 -58 -475 -151 -658 -236 -38 -18 -72 -33 -75
-33 -18 -5 -90 -41 -90 -46 0 -4 -6 -7 -12 -7 -7 0 -38 -15 -68 -33 -30 -18
-61 -33 -67 -33 -7 0 -13 -4 -13 -9 0 -4 -4 -8 -9 -8 -12 0 -205 -112 -209
-122 -2 -4 -7 -8 -12 -8 -7 0 -128 -75 -155 -97 -6 -4 -33 -24 -60 -43 -28
-19 -54 -38 -60 -42 -16 -13 -79 -61 -115 -88 -19 -14 -42 -33 -52 -42 -10
-10 -22 -18 -27 -18 -6 0 -16 -8 -23 -18 -7 -10 -22 -25 -34 -33 -57 -38 -303
-273 -414 -395 -120 -131 -280 -323 -318 -383 -9 -14 -19 -28 -22 -31 -4 -3
-21 -27 -40 -55 -19 -27 -36 -52 -40 -55 -9 -8 -143 -221 -169 -270 -13 -25
-35 -63 -49 -85 -30 -47 -163 -310 -166 -328 -1 -6 -9 -26 -18 -43 -42 -78
-163 -400 -203 -539 -9 -33 -23 -80 -31 -105 -18 -61 -69 -292 -98 -447 -3
-11 -7 -43 -11 -70 -4 -26 -9 -59 -11 -73 -26 -168 -39 -379 -38 -650 0 -257
6 -353 29 -535 2 -22 7 -60 10 -85 4 -25 8 -54 10 -65 3 -11 7 -38 10 -60 3
-22 7 -47 10 -55 2 -8 6 -33 10 -55 5 -34 18 -96 42 -195 3 -14 8 -33 9 -42 9
-43 77 -275 100 -339 14 -38 27 -78 29 -87 2 -9 25 -69 50 -132 26 -63 48
-119 49 -125 9 -33 180 -379 224 -453 18 -29 32 -57 32 -62 0 -5 7 -13 16 -18
9 -5 16 -13 16 -18 -1 -13 57 -112 69 -120 6 -3 14 -16 19 -29 5 -12 48 -77
97 -144 48 -68 93 -130 98 -138 6 -9 25 -32 42 -52 18 -20 33 -39 33 -43 0 -5
8 -16 17 -26 10 -10 41 -44 68 -77 113 -133 277 -301 415 -425 45 -41 91 -83
101 -93 11 -9 24 -17 30 -17 5 0 7 -5 4 -10 -3 -6 -2 -10 3 -10 8 0 146 -105
179 -136 7 -7 29 -22 50 -35 21 -13 44 -29 52 -37 16 -16 252 -171 301 -198
19 -10 37 -21 40 -24 15 -15 330 -179 356 -186 13 -3 24 -10 24 -15 0 -5 9 -9
19 -9 11 0 22 -4 26 -9 3 -5 19 -12 35 -16 17 -4 30 -11 30 -16 0 -6 4 -7 10
-4 5 3 10 1 10 -4 0 -6 3 -10 8 -9 10 3 124 -41 139 -54 7 -6 13 -7 13 -3 0 4
7 2 15 -5 8 -7 15 -9 15 -4 0 4 5 3 12 -4 7 -7 19 -12 28 -12 10 0 31 -7 48
-15 17 -9 39 -18 49 -20 10 -2 43 -13 73 -24 30 -12 65 -21 77 -21 12 0 25 -5
28 -10 3 -6 16 -10 29 -10 12 0 26 -3 30 -7 3 -4 14 -8 24 -9 25 -3 54 -11 85
-23 15 -6 27 -9 27 -6 0 2 15 -1 33 -6 17 -6 41 -12 52 -14 11 -2 31 -6 45 -9
38 -9 73 -16 96 -20 70 -13 102 -19 124 -22 14 -1 25 -3 25 -4 0 -2 16 -4 98
-14 26 -3 60 -8 75 -11 198 -35 743 -40 1037 -10 36 3 117 14 165 21 19 3 51
7 70 9 19 2 46 7 60 10 44 9 74 15 105 20 17 2 41 7 55 10 14 2 34 7 45 9 11
2 40 9 65 16 25 7 54 14 65 16 80 15 125 29 125 37 0 6 3 8 6 5 5 -6 105 16
139 31 28 13 58 24 70 26 13 3 5 0 120 41 55 19 110 38 123 41 12 3 22 9 22
13 0 4 19 13 43 20 23 7 63 23 89 36 27 13 49 24 50 23 5 -3 210 100 226 113
8 7 18 12 21 11 3 -1 29 11 56 26 28 16 55 29 60 30 6 2 17 8 25 15 8 7 39 26
68 41 28 16 52 32 52 37 0 4 3 7 8 6 4 -1 34 16 67 37 33 22 67 44 76 50 41
26 105 69 116 79 32 28 43 36 43 31 0 -3 14 8 31 25 18 16 35 30 39 30 4 0 18
9 31 21 13 11 39 33 58 47 19 15 45 36 57 47 13 11 36 31 51 43 110 92 403
374 403 387 0 3 15 20 33 38 54 56 207 241 272 331 11 16 35 48 53 71 17 24
32 48 32 54 0 5 4 11 9 13 11 4 121 172 121 186 0 5 7 12 15 16 8 3 15 10 15
15 0 6 14 34 31 63 61 102 184 334 187 351 1 6 16 40 77 172 10 22 19 42 20
45 3 8 16 43 25 65 20 50 55 140 55 145 1 3 12 37 25 75 13 39 25 75 27 80 19
71 29 101 33 105 3 3 6 14 7 25 1 11 14 63 28 115 15 52 28 105 31 118 2 12 7
34 10 50 3 15 6 37 7 50 0 12 3 22 7 22 3 0 6 12 7 28 3 28 10 67 13 67 1 0 3
11 5 25 11 82 14 109 20 145 4 22 9 56 10 75 2 19 4 35 5 35 1 0 3 19 4 41 2
23 6 47 10 53 4 6 2 11 -4 11 -6 0 -8 5 -4 12 4 6 9 41 12 77 8 103 7 576 -1
671 -16 173 -24 253 -32 290 -3 14 -6 42 -7 63 -1 20 -4 37 -7 37 -3 0 -6 12
-7 28 0 15 -4 44 -8 66 -4 21 -9 48 -12 60 -3 19 -7 35 -19 94 -3 12 -7 32
-11 45 -5 22 -10 43 -18 82 -2 11 -11 45 -20 75 -8 30 -18 66 -21 80 -4 14 -9
32 -12 40 -3 8 -8 23 -9 32 -6 29 -51 158 -58 165 -3 4 -6 12 -6 19 0 7 -5 25
-12 41 -13 33 -12 30 -22 66 -5 15 -12 27 -18 27 -5 0 -7 4 -3 10 3 5 1 17 -4
27 -5 10 -18 41 -30 69 -75 188 -262 554 -282 554 -6 0 -8 4 -5 9 3 4 -7 28
-23 52 -110 173 -145 224 -152 227 -5 2 -9 8 -9 13 0 20 -269 368 -292 377 -4
2 -8 7 -8 12 0 4 -24 33 -54 64 -29 31 -52 56 -51 56 12 0 -283 283 -385 370
-41 35 -77 66 -80 70 -3 3 -21 17 -40 30 -19 13 -43 31 -52 39 -26 24 -39 34
-93 71 -27 18 -52 37 -55 40 -3 4 -59 42 -125 84 -66 43 -132 87 -147 97 -15
11 -38 24 -50 29 -13 6 -41 22 -63 35 -22 14 -51 31 -65 38 -14 6 -27 14 -30
17 -10 10 -257 130 -268 130 -7 0 -12 5 -12 10 0 6 -3 9 -7 8 -9 -1 -40 9 -65
23 -155 82 -770 271 -962 295 -23 3 -48 8 -56 10 -22 8 -100 21 -180 30 -30 3
-66 8 -80 10 -14 3 -56 7 -95 9 -38 3 -86 8 -105 12 -34 6 -606 13 -612 8z"/>
</g>
</svg>
